/* XPM */
static char *_f35a0a68ebd4f95bc4e90fa62b51ccdeQD3PEOzzc1mqNQb[] = {
/* columns rows colors chars-per-pixel */
"64 64 215 2 ",
"   c #9CCC62",
".  c #9BCD61",
"X  c #9BCD60",
"o  c #9BCE60",
"O  c #9CCD62",
"+  c #9CCB64",
"@  c #9DCA65",
"#  c #9ECA67",
"$  c #9EC968",
"%  c #A0C76C",
"&  c #A1C56F",
"*  c #9EC967",
"=  c #A3C273",
"-  c #A5BF79",
";  c #A3C373",
":  c #A0C76B",
">  c #A3C274",
",  c #A0C66C",
"<  c #9DC966",
"1  c #A1C46F",
"2  c #A4BE78",
"3  c #A7BA7F",
"4  c #A4BF78",
"5  c #A0C56E",
"6  c #9DC967",
"7  c #A7BA80",
"8  c #A5BE79",
"9  c #9DCA66",
"0  c #9FC36E",
"q  c #A2BC76",
"w  c #A4B77D",
"e  c #A2BD76",
"r  c #9FC46D",
"t  c #A2BC77",
"y  c #A0C36E",
"u  c #9CC964",
"i  c #9CC369",
"p  c #9DBC6E",
"a  c #9DB671",
"s  c #9CBC6D",
"d  c #9CC368",
"f  c #9DB672",
"g  c #9DBB6E",
"h  c #9CC269",
"j  c #9CCE61",
"k  c #9BCC62",
"l  c #9AC962",
"z  c #98C362",
"x  c #95BC62",
"c  c #93B762",
"v  c #93B662",
"b  c #95BB62",
"n  c #98C262",
"m  c #9CCD61",
"M  c #9DCE62",
"N  c #9BCC61",
"B  c #99C95F",
"V  c #94C35C",
"C  c #8FBC58",
"Z  c #8BB755",
"A  c #95C45C",
"S  c #8FBC57",
"D  c #9DCE63",
"F  c #98C95E",
"G  c #92C358",
"H  c #8BBC52",
"J  c #86B74D",
"K  c #93C459",
"L  c #91C357",
"P  c #8ABC50",
"I  c #84B74A",
"U  c #84B64A",
"Y  c #89BB4F",
"T  c #91C257",
"R  c #84B64B",
"E  c #89BB50",
"W  c #8BBD52",
"Q  c #8BBC51",
"!  c #98C95F",
"~  c #93C45A",
"^  c #8DBE54",
"/  c #89BA50",
"(  c #8EBF54",
")  c #94C55A",
"_  c #99CA5F",
"`  c #95C65C",
"'  c #91C258",
"]  c #96C75C",
"[  c #9ACB60",
"{  c #9ECA66",
"}  c #9BCC60",
"|  c #9ACC60",
" . c #A0C66D",
".. c #A1C570",
"X. c #9DCB64",
"o. c #9ACC5F",
"O. c #A5BF7A",
"+. c #9CCD63",
"@. c #9ECD66",
"#. c #A0CD68",
"$. c #A1CD6A",
"%. c #9ECD65",
"&. c #A3CD6D",
"*. c #A8CE74",
"=. c #ABCF7A",
"-. c #A7CE74",
";. c #A2CD6C",
":. c #A8CE75",
">. c #B1CF82",
",. c #B7D08B",
"<. c #B0CF81",
"1. c #A7CE73",
"2. c #A0CD69",
"3. c #ACCF7B",
"4. c #B8D18C",
"5. c #C0D398",
"6. c #B7D18A",
"7. c #ABCF78",
"8. c #A2CE6B",
"9. c #ADD17C",
"0. c #BAD38E",
"q. c #C3D59B",
"w. c #C2D59B",
"e. c #B9D38D",
"r. c #ACD079",
"t. c #A1CF6A",
"y. c #ACD279",
"u. c #B7D689",
"i. c #BFD994",
"p. c #B6D687",
"a. c #AAD276",
"s. c #A2CF6A",
"d. c #A0CF68",
"f. c #A9D473",
"g. c #B3D980",
"h. c #B9DD88",
"j. c #B2D97E",
"k. c #A8D372",
"l. c #9FD066",
"z. c #A6D56E",
"x. c #AEDC77",
"c. c #B3E07D",
"v. c #ADDB76",
"b. c #A5D56D",
"n. c #9FD065",
"m. c #A5D66B",
"M. c #ACDD72",
"N. c #B0E277",
"B. c #ABDD72",
"V. c #A4D56B",
"C. c #A5D76B",
"Z. c #ABDE72",
"A. c #B0E376",
"S. c #ABDD71",
"D. c #A4D66A",
"F. c #ACDE72",
"G. c #B0E377",
"H. c #A4D56A",
"J. c #9ED065",
"K. c #A9DB70",
"L. c #ADDF74",
"P. c #A9DA6F",
"I. c #A3D469",
"U. c #9ECF64",
"Y. c #A1D368",
"T. c #A6D76C",
"R. c #A5D76C",
"E. c #A1D267",
"W. c #A3CE6C",
"Q. c #A2CD6B",
"!. c #AECF7E",
"~. c #AFCF7F",
"^. c #A7CE72",
"/. c #AFCF80",
"(. c #BBD192",
"). c #BDD195",
"_. c #AACF78",
"`. c #B6D189",
"'. c #C6D3A1",
"]. c #C8D4A5",
"[. c #ABD079",
"{. c #B8D38B",
"}. c #C9D7A4",
"|. c #CBD7A8",
" X c #B5D686",
".X c #C5DB9C",
"XX c #C7DC9F",
"oX c #A7D371",
"OX c #B1D87D",
"+X c #BEDF8E",
"@X c #C0E191",
"#X c #A5D46D",
"$X c #ADDB75",
"%X c #B7E381",
"&X c #B9E583",
"*X c #8CBC52",
"=X c #AADC71",
"-X c #B3E57B",
";X c #B5E77C",
":X c #85B74B",
">X c #92C458",
",X c #ABDE71",
"<X c #AFE376",
"1X c #AFE275",
"2X c #AADD70",
"3X c #AADC70",
"4X c #B2E679",
"5X c #B4E87A",
"6X c #85B74C",
"7X c #B0E276",
"8X c #AFE276",
"9X c #B3E679",
"0X c #B4E77B",
"qX c #B3E57A",
"wX c white",
/* pixels */
"  . . . X o o X . . . . X o o X . . .       O O O O O O O O O O O O O O O O O O O O O O O O O O O O O O O O O O O O O O O O O O ",
". O                                 O . . O O O O O O O O O O O O O O O O O O O O O O O O O O O O O O O O O O O O O O O O O O O ",
".     + @ # # @ +     + @ # # @ +     . . . O O O O O O O O O O O O O O O O O O O O O O O O O O O O O O O O O O O O O O O O O O ",
".   + $ % & & % * + + * % & & % $ +   . . . O O O O O O O O O O O O O O O O O O O O O O O O O O O O O O O O O O O O O O O O O O ",
"X   @ % = - - ; : @ @ : ; - - > , @   . . . O O O O O O O O O O O O O O O O O O O O O O O O O O O O O O O O O O O O O O O O O O ",
"o   < 1 2 3 3 4 5 6 6 5 4 3 7 8 1 9   X . . O O O O O O O O O O O O O O O O O O O O O O O O O O O O O O O O O O O O O O O O O O ",
"o   < 0 q w w e r < < r e w w t y <   X . . O O O O O O O O O O O O O O O O O O O O O O O O O O O O O O O O O O O O O O O O O O ",
"o   u i p a a s d u u d s a f g h u   . . . O O O O O O O O O O O O O O O O O O O O O O O O O O O O O O O O O O O O O O O O O O ",
"j k l z x c c x z l l z x c v b n l k m m m O O O O O O O O O O O O O O O O O O O O O O O O O O O O O O O O O O O O O O O O O O ",
"M N B V C Z Z C A B B A C Z Z S V B N O O O O O O O O O O O O O O O O O O O O O O O O O O O O O O O O O O O O O O O O O O O O O ",
"D N F G H J J H K F F K H J J H G F N O O O O O O O O O O O O O O O O O O O O O O O O O O O O O O O O O O O O O O O O O O O O O ",
"D N F L P I I P G F F G P I U Y T F N O O O O O O O O O O O O O O O O O O O O O O O O O O O O O O O O O O O O O O O O O O O O O ",
"D N F L P R R P G F F G P R R E T F N O O O O O O O O O O O O O O O O O O O O O O O O O O O O O O O O O O O O O O O O O O O O O ",
"D N F G H J J W K F F K W J J Q G F N O O O O O O O O O O O O O O O O O O O O O O O O O O O O O O O O O O O O O O O O O O O O O ",
"D N ! ~ ^ / / ( ) ! ! ) ( / / ^ K ! N O O O O O O O O O O O O O O O O O O O O O O O O O O O O O O O O O O O O O O O O O O O O O ",
"O N _ ` ' ( ( ' ] _ _ ] ' ( ( T ` _ N O O O O O O O O O O O O O O O O O O O O O O O O O O O O O O O O O O O O O O O O O O O O O ",
"O N [ F ] ) ) ] F [ [ F ] ) ) ` F [ N O O O O O O O O O O O O O O O O O O O O O O O O O O O O O O O O O O O O O O O O O O O O O ",
"O N N [ _ _ _ _ [ N N [ _ _ _ _ [ N N O O O O O O O O O O O O O O O O O O O O O O O O O O O O O O O O O O O O O O O O O O O O O ",
"O O N N N N N N N N N N N N N N N N O O O O O O O O O O O O O O O O O O O O O O O O O     O . . . . . . . . . . . . . . . . O   ",
"N O O O O O O O O O O O O O O O O O O N N N O O O O O O O O O O O O O O O O O O O O       . . . . . . . . . . . . . . . . . .   ",
"N O O O O O O O O O O O O O O O O O O N N N O O O O O O O O O O O O O O O O O O O O       . . . . X X . . . . . . X X . . . .   ",
"N O O O O O O O O O O O O O O O O O O N N O O O O O O O O O O O O O O O O O O O O O O . . O                                 O . ",
"O O O O O O O O O O O O O O O O O O O O O O N N N N N N N N N N N N N N N N O O O O . . .     + @ # { @ +     + @ { { @ +     . ",
"O O O O O O O O O O O O O O O O O O O O O . N N } | | } N N N N } | | } N N . O O O . . .   + $  .....% * X.X.* % ....% $ +   . ",
"O O O O O O O O O O O O O O O O O O O O O . N } | o.o.| N N N N | o.o.| } N . O O O . . .   @  .> O.O.> % 9 9 % > O.O.> , @   X ",
"O O O O O O O O O O O O O O O O O O O . . O O O O O O O O O O O O O O O O O O . . O . . X   < 1 8 7 7 4 5 6 6 5 4 7 7 2 1 <   o ",
"O O O O O O O O O O O O O O O O O O N N N O +.@.#.$.$.#.%.+.+.%.#.$.$.#.@.+.O N N N . . X   < y t w w e r < < r e w w q 0 <   o ",
"O O O O O O O O O O O O O O O O O O N N N O %.&.*.=.=.-.;.@.@.;.-.=.=.*.&.%.O N N N . . .   u h g f a s d u u d s a a p i u   o ",
"O O O O O O O O O O O O O O O O O O N } | O #.:.>.,.,.<.1.2.2.1.<.,.,.>.:.#.O | } N m m m k l n b v c x z l l z x c c x z l k j ",
"O O O O O O O O O O O O O O O O O O N | o.O $.3.4.5.5.6.7.8.8.7.6.5.5.4.3.$.O o.| N O O O N B V S Z Z C A B B A C Z Z C V B N M ",
"O O O O O O O O O O O O O O O O O O N | o.O 8.9.0.q.w.e.r.8.8.r.e.w.q.0.9.8.O o.| N O O O N F G H J J H K F F K H J J H G F N D ",
"O O O O O O O O O O O O O O O O O O N | o.O t.y.u.i.i.p.a.s.s.a.p.i.i.u.y.t.O o.| N O O O N F T Y U I P G F F G P I I P L F N D ",
"O O O O O O O O O O O O O O O O O O N } | O d.f.g.h.h.j.k.d.d.k.j.h.h.g.f.d.O | } N O O O N F T E R R P G F F G P R R P L F N D ",
"O O O O O O O O O O O O O O O O O O N N } O l.z.x.c.c.v.b.l.l.b.v.c.c.x.z.l.O } N N O O O N F G Q J J W K F F K W J J H G F N D ",
"O O O O O O O O O O O O O O O O O O N N N O n.m.M.N.N.B.V.n.n.V.B.N.N.M.m.n.O N N N O O O N ! K ^ / / ( ) ! ! ) ( / / ^ ~ ! N D ",
"O O O O O O O O O O O O O O O O O O N N N O n.C.Z.A.A.S.D.n.n.D.S.A.A.Z.C.n.O N N N O O O N _ ` T ( ( ' ] _ _ ] ' ( ( ' ` _ N O ",
"O O O O O O O O O O O O O O O O O O N N N O n.C.F.G.G.S.D.n.n.D.S.G.G.F.C.n.O N N N O O O N [ F ` ) ) ] F [ [ F ] ) ) ] F [ N O ",
"O O O O O O O O O O O O O O O O O O N N N O n.m.B.N.N.S.H.n.n.H.S.N.N.B.m.n.O N N N O O O N N [ _ _ _ _ [ N N [ _ _ _ _ [ N N O ",
"O O O O O O O O O O O O O O O O O O N N N O J.H.K.L.L.P.I.n.n.I.P.L.L.K.H.J.O N N N O O O O N N N N N N N N N N N N N N N N O O ",
"O O O O O O O O O O O O O O O O O O N N N O U.Y.T.P.P.R.E.U.U.E.R.P.P.T.Y.U.O N N N N N N O O O O O O O O O O O O O O O O O O N ",
"O O O O O O O O O O O O O O O O O O N N N O D n.Y.I.I.E.n.D D n.E.I.I.Y.n.D O N N N N N N O O O O O O O O O O O O O O O O O O N ",
"O O O O O O O O O O O O O O O O O O N N N O O D U.U.U.U.D O O D U.U.U.U.D O O N N N O N N O O O O O O O O O O O O O O O O O O N ",
"O O O O O O O O O O O O O O O O O O O N N O O O O O O O O O O O O O O O O O O N N O O O O O O O O O O O O O O O O O O O O O O O ",
"O O O O O O O O O O O O O O O O O O O O O N N N N N N N N N N N N N N N N N N O O O O O O O O O O O O O O O O O O O O O O O O O ",
"O O O O O O O O O O O O O O O O O O O O O N N N N N N N N N N N N N N N N N N O O O O O O O O O O O O O O O O O O O O O O O O O ",
"O O O O O O O O O O O O O O O O O O O O O O N N N N N N N N N N N N N N N N O O O O O O O O O O O O O O O O O O O O O O O O O O ",
"O O O O O O O O O O O O O O O     O . . . . . . . . . . . . . . . . O     O O O O O O O O O O O O O N N N N N N N N N N N N N N ",
"O O O O O O O O O O O O O O       . . . . . . . . . . . . . . . . . .       O O O O O O O O O O O . N N } | | } N N N N } | | o.",
"O O O O O O O O O O O O O O       . . . . X X . . . . . . X X . . . .       O O O O O O O O O O O . N } | o.o.| N N N N | o.o.o.",
"O O O O O O O O O O O O O O O . . O                                 O . . O O O O O O O O O O . . O O O O O O O O O O O O O O O ",
"O O O O O O O O O O O O O O . . .     + @ # { @ +     + @ { # @ +     . . . O O O O O O O O N N N O +.@.#.$.$.#.%.+.+.%.#.$.;.W.",
"O O O O O O O O O O O O O O . . .   + $  .....% * X.X.* % .... .$ +   . . . O O O O O O O O N N N O %.&.*.=.=.-.;.@.@.Q.1.=.!.~.",
"O O O O O O O O O O O O O O . . .   @  .> O.O.> % 9 9 % > O.O.>  .@   . . . O O O O O O O O N } | O #.:.>.,.,.<.1.2.2.^./.,.(.).",
"O O O O O O O O O O O O O O . . X   < 1 8 7 7 4 5 6 6 5 4 7 7 8 1 <   X . . O O O O O O O O N | o.O $.3.4.5.5.6.7.8.8._.`.5.'.].",
"O O O O O O O O O O O O O O . . X   < y t w w e r < < r e w w t y <   X . . O O O O O O O O N | o.O 8.9.0.q.w.e.r.8.8.[.{.q.}.|.",
"O O O O O O O O O O O O O O . . .   u h g f a s d u u d s a f g h u   . . . O O O O O O O O N | o.O t.y.u.i.i.p.a.s.t.a. Xi..XXX",
"O O O O O O O O O O O O O O m m m k l n b v c x z l l z x c v b n l k m m m O O O O O O O O N } | O d.f.g.h.h.j.k.d.d.oXOXh.+X@X",
"O O O O O O O O O O O O O O O O O N B V S Z Z C A B B A C Z Z S V B N O O O O O O O O O O O N N } O l.z.x.c.c.v.b.l.l.#X$Xc.%X&X",
"O O O O O O O O O O O O O O O O O N F G H J J *XK F F K *XJ J H G F N O O O O O O O O O O O N N N O n.m.M.N.N.B.V.n.n.H.=XN.-X;X",
"O O O O O O O O O O O O O O O O O N F L P :X:XQ >XF F >XQ :X:XP L F N O O O O O O O O O O O N N N O n.C.,X<X1X2XD.n.n.H.3X<X4X5X",
"O O O O O O O O O O O O O O O O O N F L P :X6XQ >XF F >XQ 6X:XP L F N O O O O O O O O O O O N N N O n.m.,X7X8XS.D.n.n.H.3X7X9X0X",
"O O O O O O O O O O O O O O O O O N F G Q J J H K F F K H J J Q G F N O O O O O O O O O O O N N N O n.m.B.N.N.S.H.n.n.H.=XN.qX;X",
"O O O O O O O O O O O O O O O O O N F G Q J J H K F F K H J J Q G F N O O O O O O O O O O O N N N O n.m.M.N.N.B.H.n.n.H.=XN.qX;X",
"O O O O O O O O O O O O O O O O O N F G Q J J H K F F K H J J Q G F N O O O O O O O O O O O N N N O n.m.M.N.N.B.H.n.n.H.=XN.qX;X"
};
