/* XPM */
static char *a8ed00bef6de45a3ef53cfc4dd194683iAtR3xz1PQQgDYcO[] = {
/* columns rows colors chars-per-pixel */
"64 64 15 1 ",
"  c None",
". c #101010",
"X c #313973",
"o c #736A73",
"O c #834A4A",
"+ c #D54A52",
"@ c #3962B4",
"# c #4A83D5",
"$ c #5AA4FF",
"% c #948B94",
"& c #ACACAC",
"* c #83CDFF",
"= c #CDCDCD",
"- c gray87",
"; c #C5DEFF",
/* pixels */
"                                                                ",
"                                                                ",
"                                                                ",
"                                                                ",
"                                                                ",
"                                                                ",
"                                                                ",
"                                                                ",
"                                                                ",
"                                                                ",
"                                                                ",
"                                                                ",
"                                                                ",
"                       XX               X.                      ",
"                     .X@@.             X@@..                    ",
"                   .X@@@@.             .@@X@..                  ",
"                  .@@XXX.               .XXXX@.                 ",
"              @@ .@@XXXX.               ..XXXXX. XXX            ",
"             @;;..@@X...                 ...XXXXX@**.           ",
"             @;;@.@X.@@.                 .XX.XXXX@**$.          ",
"            @;;;@.@.XX@@.    @@@@@@@@   .@@X.XXXXX#$$.          ",
"          .X*;;@#.X.XXX@@.X@@;;;;;;;;@..@@XX.XXXX.#$$#.         ",
"         .X***;@##...XX..$$#;;;;;;;;;;@.XXX.XXX...@#$$.         ",
"        .X@***$###.#....$$*$##;;;;;;@@##...XXX.@##X#$$#.        ",
"       X@X****@##.@##X#.$*$*$$#***X@####$$$...###@.#$$$#.       ",
"      X@@X***$###.@@#X##.$*$##****$@@##$$$$.##.@@..##$$#.       ",
"     X@@X@***@##...@X###.@@#$*$**$$$$@#$$$.@##XX.XXX@$$$#.      ",
"    .@@XX***$##...@.@@##X=&@*$*$$$$$$#@@#@.@@@@.XXX.#@$$@.      ",
"    X@@X.***@##. .@@@@@X&&&&@$$$$$$$###@=&&.@@@@XXX.##@@##.     ",
"   .@@XX@**$##X  ...@@X&&&&=-&@$$$$###@&=&&&.@@@.XXXX#####X.    ",
"   .@@X.#**@##. ..X...oo&&&&=--@######&==&&oX.@@.XXX.#####X#.   ",
"  .X@XX@##@$##..@.XX.$@@oo%=----@@##@&==&&o.@#..XXX.X#####X#.   ",
"  .XXX.@$#$$$#..@@..$#$$..Xo%-----@@===&&...X##.XXX.X#####@##.  ",
"  .XXX#@$$$#$#@.@@@@#$$$.=+OXo-----=&=&o+O..X##@.X.#X####@#@#.  ",
" .X..@*@$$$#$@#..@@#$$$$.+.+.@o---=&=&&O.+.X##@@.X.@@####@#X##. ",
" .XXX**@$$$$$@#..##@@$$$$O+O.*Xo==&&&&o#+O###@@X.X.@@####@#X##. ",
" .XX.**@$$$$X##X.@######$$$**#X&&&&&&&&X###@@@@X.X.@@@##$@#X#@. ",
" .XX**@#*$$$@###..X##########X&&&&o%&&&&X@@@@Xo.XXX.@@##$@#@@@. ",
"  .X**@***$X####..%oXX######X&&&&o#X%&&&&X@XXo%.XXX.##@#$$@@@.  ",
"  X$#*#****@$###@.%%%..XX@@X%&&%o###X%&&&&XX.%.XXXX..##@$$@@@.X ",
"  X$$#****@$$$##X .%. .ooX%%%%oXXXXXXX%&&%%..XX....X@##@$$@@@X@.",
"  X$$@****X$$###X  .   .o%%%%o@@@@@@@@.%%%%. .XX. X$$XX@$$@XX@$.",
"  X$$$@**$@$$###X      .%%%o.X@@@@@@@XX.%%.  .X.  X#$$$$$$$$###.",
"   @$$@$*X#$###@        .%%.  .......   ..    .   X###**$######.",
"  XX$$@*$X#####X.        ..                        XX#**$####XX.",
" X#X$$@$*@#####X@.                                  .%XXXXXX.%. ",
"@$##$@$*$@###@@###.                                 .&%..&%%.%. ",
"X$$@@$$$#@@@@$$###.                                  .. .&%. .  ",
"X$$*******$$$#####.                                      ..     ",
"X$$*****$########X.                                             ",
" X$*****$######XX.                                              ",
" oX@#***$###@XX%.                                               ",
" o%%.XXXXXX.o%%%.                                               ",
" o&o .%%%%.  o&o                                                ",
"  o. o&%%%.  .&.                                                ",
"      %=&o    .                                                 ",
"      o=&.                                                      ",
"       ..                                                       ",
"                                                                ",
"                                                                ",
"                                                                ",
"                                                                ",
"                                                                ",
"                                                                "
};
