/* XPM */
static char *_2554b817fa243f3cd1d49761fbc2f31Z2JhKtHLuU590WuC[] = {
/* columns rows colors chars-per-pixel */
"64 64 16 1 ",
"  c None",
". c black",
"X c #392939",
"o c #623941",
"O c #623962",
"+ c #394A73",
"@ c #BD8B6A",
"# c #526AB4",
"$ c #946AAC",
"% c #7383FF",
"& c #8B8BA4",
"* c #DEB494",
"= c #BD83FF",
"- c #C5C5D5",
"; c #FFDECD",
": c white",
/* pixels */
"                                                                ",
"                                                                ",
"                                                                ",
"                                                                ",
"                                                                ",
"                                                                ",
"                                                                ",
"                                                                ",
"                                &&&                             ",
"                             &&&---&.                           ",
"                            &--------.                          ",
"                           &::::------.                         ",
"                          &:::--&&&-#+.                         ",
"                         &-::-&&;;;#%%#+                        ",
"                         &::-&;;;;;;#%%+                        ",
"                         &:-&;@@;;;;;#%%+                       ",
"                        &::+;;*#o@;;;@#%+                       ",
"                        &:-%#;;.:*o;;o+#%                       ",
"                   %++##&:%%+;;;;;;;;*.+%                       ",
"                   %#  +#%%+**;;;;;;@+-.+                       ",
"                    %#  +#+o@*;;@;;;@.#.  %%##                  ",
"                    %#   +&&o****::@*.+#%%%+ #                  ",
"                  ## #    &-+@******.  +##+  +# #               ",
"                    ##      &.o@***.    ++    ##                ",
"                          &&&.@@o.            #                 ",
"                        &&::.o@@.&&&                            ",
"                       &::::-@@@*----&                          ",
"                       .###::-@**@---:-&                        ",
"                      .+%%%##-@**@--#+.                         ",
"                      .%%%%%%#:***####+                         ",
"                      +%%%%%%#:-*-####%+                        ",
"                     .%%%%%%#:::*--##%%%+                       ",
"                    +%%%%+.%%%#:*-#%#%%%%+                      ",
"                   +%%%%. +%%%%#@#%%#.%%-:-&                    ",
"                 +#%%--.  +%%%%%#%%%. .+%-::-&                  ",
"               ++%%-::.    +%%%%#%%%.   .%-:::-&                ",
"             ++:--:::.     +%%%%%%%%.    .%-::::&&&             ",
"            +&:::::-.      +%%-%%%%%.     .-:::::-ooooo         ",
"         ..ooo&:::-&       +%%-%%%%-+      .-:::&o@**;;o        ",
"        .;;**@o::--.       +%---%%%-%.     .--::&**@*o..        ",
"        ooo*@*@&--&        .%---%%%--.      .--&..*@;@          ",
"          @;@*.&-:.        .:----%--::&.    .--&&.o;;;.         ",
"         @;;;o.&:&         &:::--%-::::OXXXOO.-&. o;@;.         ",
"         @;@;. .:.        .:::::::::::O$$$===O.&.  o@;.         ",
"         o;@.   .         .:::::::::::O$$=====O.    o.          ",
"          o.              .:::::&::::O$$$======.                ",
"                         .::::::+::::O$$$=====$O                ",
"                         .::::::+::::O$$$=====$O                ",
"                        X.:::::&&&::-OXO=====$$.                ",
"                        OX-:::&..+:--& O=====$X                 ",
"                       X$X----X. +--&  O====$$X                 ",
"                       O$X---&O. +--&  O====$O.                 ",
"                      X$$X---X.   &-&  O===$O.                  ",
"                      O$$X--&O.   +-&  O$==$O.                  ",
"                     X$$$X--XO&.  +:& O$$=$O$.                  ",
"                     O$$$X-&OO&.   &  O$$=$O$.                  ",
"                    XO$$$$-XOO&.   &  X$$$$O$$.                 ",
"                    XOO$$$XOOO&.      X$$$$O$$.                 ",
"                     XOOOOOOO&.       X$$$$XXXO                 ",
"                      .OOOO...        X$XO&&+.                  ",
"                       ....            X---:::.                 ",
"                                        .&----.                 ",
"                                          ....                  ",
"                                                                "
};
