/* XPM */
static char *cd489a0fcf4045dad3701112c06ee3a0cCESXo7QcpEF60hi[] = {
/* columns rows colors chars-per-pixel */
"64 64 203 2 ",
"   c #000000",
".  c #06060A",
"X  c #06080E",
"o  c #09090E",
"O  c #08070D",
"+  c #0C0D13",
"@  c #0D0E19",
"#  c #070A11",
"$  c #0E1015",
"%  c #101B17",
"&  c #13141C",
"*  c #17181B",
"=  c #15171A",
"-  c #110B12",
";  c #250F0F",
":  c #291413",
">  c #261517",
",  c #331515",
"<  c #141424",
"1  c #161A22",
"2  c #1B1D24",
"3  c #1A1A2E",
"4  c #151C2D",
"5  c #1D1D32",
"6  c #1F2021",
"7  c #1D242C",
"8  c #1D2334",
"9  c #23242A",
"0  c #212236",
"q  c #232A36",
"w  c #262C3A",
"e  c #25263C",
"r  c #2C323E",
"t  c #4C2A2C",
"y  c #7B3E3D",
"u  c #7E3B37",
"i  c #6F3130",
"p  c #7C403F",
"a  c #1E2644",
"s  c #252744",
"d  c #2A2A45",
"f  c #2E2D4D",
"g  c #222C4A",
"h  c #2A3349",
"j  c #33374A",
"k  c #302F50",
"l  c #2E355C",
"z  c #2E3956",
"x  c #313253",
"c  c #35395C",
"v  c #383B5C",
"b  c #343C57",
"n  c #2F2F50",
"m  c #333A61",
"M  c #303760",
"N  c #453E4B",
"B  c #723E43",
"V  c #3E414B",
"C  c #354059",
"Z  c #3A4459",
"A  c #2E4146",
"S  c #384566",
"D  c #3B4871",
"F  c #3A4B7B",
"G  c #364677",
"H  c #3F507F",
"J  c #41434D",
"K  c #474B59",
"L  c #4D5255",
"P  c #57575A",
"I  c #7B4141",
"U  c #714148",
"Y  c #79474A",
"T  c #78484D",
"R  c #75444A",
"E  c #6A4854",
"W  c #774D54",
"Q  c #764F58",
"!  c #75535E",
"~  c #414C61",
"^  c #424973",
"/  c #414F7B",
"(  c #4A587C",
")  c #495477",
"_  c #525D7E",
"`  c #555875",
"'  c #4C556B",
"]  c #745763",
"[  c #745A68",
"{  c #6C5465",
"}  c #4B6A72",
"|  c #496770",
" . c #49766C",
".. c #726C63",
"X. c #747164",
"o. c #6F687F",
"O. c #6F667C",
"+. c #716173",
"@. c #70657A",
"#. c #74687E",
"$. c #9D3C37",
"%. c #983B38",
"&. c #833535",
"*. c #844040",
"=. c #8B4544",
"-. c #954644",
";. c #A74744",
":. c #AB4946",
">. c #A84644",
",. c #BB4141",
"<. c #9A7C7F",
"1. c #91777A",
"2. c #83656F",
"3. c #CC4644",
"4. c #C24544",
"5. c #EB5550",
"6. c #EE5C56",
"7. c #F75C56",
"8. c #F65E57",
"9. c #FF625A",
"0. c #77937F",
"q. c #548A7B",
"w. c #8F937F",
"e. c #90937F",
"r. c #435383",
"t. c #495A86",
"y. c #4E5E8A",
"u. c #485480",
"i. c #585E80",
"p. c #536186",
"a. c #5B6A86",
"s. c #55658E",
"d. c #5D6B8A",
"f. c #586689",
"g. c #5E7589",
"h. c #566991",
"j. c #5B6C94",
"k. c #476084",
"l. c #6E6C85",
"z. c #676E8A",
"x. c #6C738F",
"c. c #667389",
"v. c #637294",
"b. c #6B7592",
"n. c #64749A",
"m. c #6A7B9C",
"M. c #687999",
"N. c #767D9A",
"B. c #747789",
"V. c #6C7EA1",
"C. c #9D7E80",
"Z. c #5B8F86",
"A. c #779581",
"S. c #6B859D",
"D. c #75829E",
"F. c #62A98C",
"G. c #60A08B",
"H. c #6DB69F",
"J. c #6DA598",
"K. c #6E80A2",
"L. c #7F8DAB",
"P. c #7886A5",
"I. c #7591A5",
"U. c #71ACA2",
"Y. c #71BAA2",
"T. c #73B1A5",
"R. c #73C5A4",
"E. c #71C9A7",
"W. c #76CBA8",
"Q. c #9E9D9D",
"!. c #818EAE",
"~. c #868EA4",
"^. c #8D94A9",
"/. c #8890A7",
"(. c #8A94B2",
"). c #8998B7",
"_. c #999CA9",
"`. c #85A1AF",
"'. c #99A2B9",
"]. c #88A5B4",
"[. c #9CA6C0",
"{. c #9EAAC2",
"}. c #A2ACC4",
"|. c #ABB3CA",
" X c #AEBACC",
".X c #B3BCCF",
"XX c #B3BCD1",
"oX c #BFC6CC",
"OX c #BBC3D4",
"+X c #C1C8CF",
"@X c #C5CDDC",
"#X c #C7D1DE",
"$X c #C8D1DE",
"%X c #CCD4E2",
"&X c #D6DEE9",
"*X c #D4DCE7",
"=X c #DEE6EE",
"-X c #E2EAF1",
";X c #E8EFF5",
":X c #E9F1F7",
">X c #FBFEFF",
",X c #F3F6FB",
"<X c #E0E8EF",
/* pixels */
"R.R.R.R.R.R.R.R.R.R.R.R.R.R.R.R.R.R.R.R.R.R.R.R.R.R.R.R.R.R.R.R.R.R.R.R.R.R.R.R.R.R.R.R.R.R.R.R.R.R.R.R.R.R.R.R.R.R.R.R.R.R.R.R.",
"R.R.R.R.R.R.R.R.R.R.R.R.R.R.R.R.R.R.R.R.R.R.R.R.R.R.R.R.R.R.R.R.R.R.R.R.R.R.R.R.R.R.R.R.R.R.R.R.R.R.R.R.R.R.R.R.R.R.R.R.R.R.R.R.",
"R.R.R.R.R.R.R.R.R.R.R.R.R.R.R.R.R.R.R.R.R.R.R.R.R.R.R.R.R.R.R.R.R.R.R.R.R.R.R.R.R.R.R.R.R.R.R.R.R.R.R.R.R.R.R.R.R.R.R.R.R.R.R.R.",
"R.R.R.R.R.R.R.R.R.R.R.R.R.R.R.R.R.R.R.R.R.R.R.R.R.R.R.R.R.R.R.R.R.R.R.R.R.R.R.R.R.R.R.R.R.R.R.R.R.R.R.R.R.R.R.R.R.R.R.R.R.R.R.R.",
"R.R.R.R.R.R.R.R.R.R.R.R.R.R.R.R.R.R.R.R.R.R.R.R.R.R.R.R.R.R.R.R.R.R.R.R.R.R.R.R.R.R.R.R.R.R.R.R.R.R.R.R.R.R.R.R.R.R.R.R.R.R.R.R.",
"R.R.R.R.R.R.R.R.R.R.R.R.R.R.R.R.R.R.R.R.R.R.R.R.R.R.R.R.R.R.R.R.R.R.R.R.R.R.R.R.R.R.R.R.R.R.R.R.R.R.R.R.R.R.R.R.R.R.R.R.R.R.R.R.",
"R.R.R.R.R.R.R.R.R.R.R.R.R.R.R.R.R.R.R.R.R.R.R.R.R.R.R.R.R.R.R.R.R.R.R.R.R.R.R.R.R.R.R.R.R.R.R.R.R.R.R.R.R.R.R.R.R.R.R.R.R.R.R.R.",
"R.R.R.R.R.R.R.R.R.R.R.R.R.R.R.R.R.R.R.R.R.R.R.R.R.R.R.R.R.R.R.R.R.R.R.R.R.R.R.R.R.R.R.R.R.R.R.R.R.R.R.R.R.R.R.R.R.R.R.R.R.R.R.R.",
"R.R.R.R.R.R.R.R.R.R.R.R.R.R.R.R.R.R.R.R.R.R.R.R.R.R.R.R.R.R.R.R.R.R.R.R.R.R.R.R.R.R.R.R.R.R.R.R.R.R.R.R.R.R.R.R.R.R.R.R.R.R.R.R.",
"R.R.R.R.R.R.R.R.R.R.R.R.R.R.R.R.R.R.R.R.R.R.E.E.E.E.E.E.E.E.E.E.E.E.E.E.E.E.E.E.E.E.E.E.E.R.E.E.E.E.E.E.E.E.E.E.E.E.E.E.E.E.E.E.",
"R.R.R.R.R.R.R.R.R.R.R.R.R.R.R.R.R.R.R.R.R.J.w.w.w.w.w.w.w.w.w.w.w.w.w.w.w.w.w.w.w.w.w.w.w.w.w.w.w.w.w.w.w.w.w.w.w.w.w.w.A.A.0.A.",
"R.R.R.R.R.R.R.R.R.R.R.R.R.R.R.R.R.R.R.R.R.X.%.4.3.3.3.3.3.3.3.3.3.3.3.3.3.3.3.3.3.3.3.4.3.3.3.3.3.4.3.3.3.3.3.3.3.3.3.4.-.=.I i ",
"R.R.R.R.R.R.R.R.R.R.R.R.R.R.R.R.R.R.R.R.R...;.7.7.7.7.7.7.7.7.7.9.7.7.7.7.7.7.7.7.7.7.7.7.7.7.7.7.7.7.7.7.7.7.7.8.6.9.9.6.9.%.o ",
"R.R.R.R.R.R.R.R.R.R.R.R.R.R.R.R.R.R.R.R.R.X.>.9.9.9.9.9.9.9.9.9.9.9.9.9.9.9.9.9.9.9.9.9.9.9.9.9.9.9.9.9.9.9.9.9.9.9.9.9.9.9.$.  ",
"R.R.R.R.R.R.R.R.R.R.R.R.R.R.R.R.R.R.R.R.R.X.:.9.9.9.9.9.9.9.9.9.9.9.9.9.9.9.9.9.9.9.9.9.9.9.9.9.9.9.9.9.9.9.9.9.9.9.9.9.9.9.$.  ",
"R.R.R.R.R.R.R.Y.Y.Y.Y.Y.Y.Y.Y.Y.Y.Y.Y.H.H...:.9.9.9.9.9.9.7.9.9.9.9.9.9.9.9.9.9.9.9.9.9.9.9.9.9.9.9.9.9.9.9.9.9.9.9.9.9.9.9.$.  ",
"R.R.R.R.R.R.U.S.S.S.S.S.S.S.S.S.S.S.S.S.( E :.9.9.9.9.9.9.9.9.9.9.9.9.9.9.9.9.9.9.9.9.9.9.9.9.9.9.9.9.9.9.9.9.9.9.9.9.9.9.9.$.  ",
"R.R.R.R.R.J.`.XX.X.X.X.X.X.X.X.X.X.X.X X}.2.;.9.9.9.9.9.9.9.9.9.9.9.9.9.9.9.9.9.9.9.9.9.9.9.9.9.9.9.9.9.9.9.7.9.9.9.9.9.9.9.$.  ",
"R.R.R.R.T.I.}.<X<X-X<X<X-X<X-X-X-X-X-X-X=Xe.;.9.9.9.9.9.9.9.9.9.9.9.9.9.9.9.9.9.9.9.9.9.9.9.9.9.9.9.9.9.9.9.9.9.9.9.9.9.9.9.$.  ",
"R.R.R.Y.g.(.@X=X=X=X=X=X<X=X=X=X=X=X=X=X=X<.;.9.9.9.9.9.9.9.9.9.9.9.9.9.9.9.9.9.9.9.9.9.9.9.9.9.9.9.9.9.9.9.9.9.9.9.9.9.9.9.$.  ",
"R.R.W.F.7 Q.,X<X=X=X=X=X=X=X=X=X=X=X=X=X=X<.>.7.9.9.9.9.9.9.9.9.9.9.9.9.9.9.7.9.9.9.9.9.9.9.9.9.9.9.9.9.9.9.9.9.9.9.9.9.9.9.$.. ",
"R.R.W.F.% Q.>X=X=X=X=X=X=X=X=X=X=X=X=X=X=X<.:.7.9.9.9.9.9.9.9.9.9.9.9.9.9.9.9.9.9.9.9.9.9.9.9.9.9.9.9.9.9.9.9.9.9.9.9.9.9.9.$.  ",
"R.R.W.F.% Q.>X=X=X=X=X=X=X=X=X=X=X=X=X=X=X<.>.7.9.9.9.9.9.9.9.9.9.9.9.9.9.9.9.9.9.9.9.9.9.9.9.9.9.9.9.9.9.9.9.9.9.9.9.9.9.9.$.  ",
"R.R.W.F.% Q.>X=X=X=X=X=X=X=X=X=X=X=X=X=X=X<.>.9.9.9.9.9.9.9.9.9.9.9.9.9.9.9.9.9.9.9.9.9.9.9.9.9.9.9.9.9.9.9.9.9.9.9.9.9.9.9.$.  ",
"R.R.W.F.% Q.>X=X=X=X=X=X=X=X=X=X=X=X=X=X=X<.;.9.9.9.9.9.9.9.9.9.9.9.9.9.9.9.9.9.9.9.9.9.9.9.9.9.9.9.9.9.9.9.9.9.9.9.9.9.9.9.$.. ",
"R.R.W.F.% Q.>X=X=X=X=X=X=X=X=X=X=X=X=X=X=X<.;.7.9.9.9.9.9.9.9.9.7.9.9.9.9.9.9.9.9.9.9.9.9.9.9.9.9.9.9.9.9.9.9.9.9.9.9.9.9.9.$.  ",
"R.R.W.F.% Q.>X=X=X=X=X=X=X=X=X=X=X=X=X=X=X<.;.9.9.9.9.9.9.9.9.9.9.9.9.9.9.9.9.9.9.9.9.9.9.9.9.9.9.9.9.9.9.9.9.9.9.9.9.9.9.9.$.  ",
"R.R.R.G.% Q.>X=X=X=X=X=X=X=X=X=X=X=X=X=X=X<.;.9.9.9.9.9.9.9.9.9.9.9.9.9.9.9.9.9.9.9.9.9.9.9.9.9.9.9.9.9.9.9.9.9.9.9.9.9.9.9.$.  ",
"R.R.T.g.$ Q.>X=X=X=X=X=X=X=X=X=X=X=X=X=X=X<.>.9.9.9.9.9.9.9.9.9.9.9.9.9.9.9.9.9.9.9.9.9.9.9.9.9.9.9.9.9.9.9.9.9.9.9.9.9.9.9.$.. ",
"R.J.].'.* Q.>X=X=X=X=X=X=X=X=X=X=X=X=X=X=X<.>.7.9.9.9.9.9.9.9.9.9.9.9.9.9.9.9.9.9.9.9.9.9.9.9.9.9.9.9.9.9.9.9.9.9.9.9.9.9.9.$.  ",
"U.`.OXoX9 Q.>X=X=X=X=X=X=X=X=X=X=X=X=X-X=X<.;.5.5.5.5.5.5.5.5.5.5.5.5.5.5.5.5.5.5.5.5.5.5.5.5.5.5.5.5.5.5.5.5.5.5.5.5.5.5.7.%.  ",
"n. X;XOX6 Q.>X=X=X=X=X=X=X=X=X=X=X=X=X=X=X1.&.,.,.,.,.,.,.,.,.,.,.,.,.,.,.,.,.,.,.,.,.,.,.,.,.,.,.,.,.,.,.,.,.,.,.,.,.,.,.4.i   ",
"r.}.;XoX6 Q.>X=X=X=X=X=X=X=X=X=X=X=X=X=X=XP , *.*.I *.*.*.*.*.*.u *.*.*.*.p *.*.*.*.*.*.*.*.*.*.*.I *.*.*.*.*.*.*.*.I *.*.=.t   ",
"F '.:X+X6 B.&X=X=X=X=X=X=X=X=X=X=X=X=X=X=XL ; p I I I I I I I I p p I I I I I I I I I I I I I I I I I I I I I I I y y y y p t   ",
"F {.:X+X6 ' |.%X=X=X=X<X=X=X=X=X=X=X=X=X=XL ; p I I I I I I I I p p I I I I I I p I I I I I I I I I I I I I B y y W ] ] ] [ t   ",
"F {.:X+Xq V D.}.$X=X*X*X*X=X*X=X*X=X=X*X*XL ; p I I I y I I I y p p p I I I p I B I I y p I p I I I I p I I I T T o.m.m.m.K.~   ",
"F {.;X#X) 4 h P.}.|.|.|.|.|.|.|.}.|.|. X|.j ; p I I I I B p I p p p I I I p I I B y I I I I I I I p I I I y ] x.b.b.m.M.m.V.~   ",
"F {.;X#Xs.s s ) P.!.L.!.!.L.L.L.L.L.L.L.L.w 9 +.@.@.@.@.O.O.O.O.O.O.O.O.O.O.O.O.O.O.O.O.@.@.o.+.R p y Y +.O.l.m.m.m.m.m.m.V.~   ",
"F {.;X#Xp.M k x ( _ _ _ _ _ _ _ _ ' ( M.n.q q V.V.V.V.V.V.V.V.V.m.V.m.K.V.V.S.V.V.V.V.S.K.K.b.@.Y p T [ M.V.m.m.m.m.m.m.m.V.~   ",
"F {.;X#Xy.l k x v v b v v v c x x $ q M.m.q 9 c.v.b.x.x.x.x.x.b.c.v.x.x.v.x.x.x.x.x.x.x.x.v.+.I p y ! x.M.M.m.m.m.m.m.m.m.V.~   ",
"F {.;X#Xy.l n v d.v.v.v.z.v.p.G x + q m.m.q : Y T T T T T T Y Y T T T T Y T T Y Y Y Y T W T Y I I I I W b.V.m.m.m.m.m.m.m.V.~   ",
"F {.:X#Xp.l k c v.m.m.m.m.j./ c l @ q m.m.q : y y y &.p y y y y y y y y y y y y y y y y &.B p I +.W y B ! l.V.m.m.m.M.m.m.V.~   ",
"F '.:X$X( l f v v.m.m.M.j./ M f 0 O q m.M.q > ] ] ] ] ] ] ] ] ] ] ] ] ] ] ] ] ] ] ] ] ] I I Y [ b.#.W y y ] l.m.m.m.V.M.#.l.N   ",
"F {.;XOXK d k v v.m.m.j.F c n e .   w M.M.q q b.x.x.x.x.x.x.x.x.x.x.x.x.x.x.x.x.x.x.b.l.Y y ] M.m.m.l.T I y ! b.M.b.b.l.Y *.t   ",
"G }.*X'.< 5 k v z.m.j.F c x 0 .     w m.M.q > Y T T T T T T T T T T T T T T T T Y Y T T I y ] M.m.m.M.l.Y y I Q b.[ Y Y B *.t   ",
"F }.*X^.& 5 k v v.j./ c x 5 #       w M.M.q : B y p p p p y p p y y y p p p p p y B y y I ] z.m.m.M.m.M.o.W y B ! Y y y y [ J   ",
"F }.*X^.& 5 x v y./ M n 0 +         w m.M.q : y I I I I I I I I B I I *.I I I I I *.I I I @.V.m.m.m.m.m.m.@.W p y y Y ] ] B.~   ",
"F [.$X/.2 3 f x D m k e .           w m.m.q , B I I I I I I I I I I I I I I I I I I I I T o.m.m.m.m.m.m.m.V.#.I B I [ m.m.V.~   ",
"F !.'.M.j & < k x x 0 O             w M.M.q : y I I I I I I I I I I I I I I I I I I p Y l.M.m.m.m.m.m.m.m.m.@.p p +.M.M.m.V.~   ",
"M v.P.n.f.k < < f 5 +               8 t.t.4 : I I I I I I p I I I I I I I I I I I I y T b.m.M.m.m.m.m.M.m.@.W Y +.b.m.M.M.V.~   ",
"x _ m.m.m.f.k & 3 +             - 7 b t.t.4 : p *.p I p p p p y p p p p I *.I y I *.y T x.m.m.m.m.m.m.m.m.! &.Y b.m.m.S.m.V.~   ",
"x i.m.m.M.m.a.j & + - $ $ $ $ & x f.m.m.m.q > U U U U U U U U U U U U U U U U B U U U E z.M.n.n.n.n.n.n.n.{ U E z.n.n.n.n.m.Z   ",
"x _ m.m.m.m.M.v.d.a.a.a.a.a.a.d.v.M.m.m.M.q < ^ ^ ^ ^ ^ ^ ^ ^ ^ ^ ^ ^ ^ ^ ^ ^ ^ ^ ^ ^ ^ / / r.H / / / r./ ^ ^ ^ / H H H r.r.h   ",
"x i.V.m.m.m.m.m.m.K.m.K.V.V.V.m.m.m.M.m.M.q 7 h.h.h.j.s.h.s.h.j.h.h.h.j.j.s.s.j.h.h.h.h.j.s.s.s.h.h.h.s.h.h.h.h.h.s.s.h.s.j.b   ",
"x ) s.s.j.n.m.m.m.m.m.m.m.V.V.V.m.V.V.V.m.q q V.K.m.m.S.m.K.K.K.K.V.m.K.K.S.m.m.m.K.V.K.V.V.V.V.S.V.V.V.V.V.V.m.K.V.K.V.K.P.~   ",
"k ^ t.r.F s.m.m.m.M.v.a.a.a.a.a.a.a.a.d.a.9 7 d.a.v.n.n.d.a.a.a.a.a.a.a.a.v.n.n.d.a.a.a.a.a.d.a.a.a.a.a.d.a.z.a.a.a.a.a.a.d.Z   ",
"x b.[.(.r.s.m.m.M.) e $ $ $ $ $ @ + $ $ $ .   $ $ z r.D 1 + $ $ $ $ $ $ $ z r.D * + $ $ $ $ @ + $ + $ $ $ $ $ $ $ $ $ + $ + #   ",
"k N.XX[.t.h.K.n.) e . . < a g g 5 #               C j.( @                 C j.( $           X 5 g g a < .                 & A  .",
"| z.D.N.r.y.j.y.e O . 0 ` u.G F i.j @       $ r V x.).P.K V V V J J J J V x.).P.K j 2     @ h i.F F u.` 8 X     @ & < & & e } W.",
"R.} x g M S S l O   4 t.(.n.r.s.(.n.g       8 c./.^.^.^.^.^.^.^.^.^.^.^.^.^.^.^./.N.C     h n.(.y.r.n.(.t.4   . d x k k n n } R.",
"W.R. .. o # # O     q j.y.P.'.(.s.j.S       . $ * * * * * * * * * * * * * * * * & & o     ~ j.s.(.[.P.y.j.q   . d x x x x f | R.",
"R.W.q.3 3 5 5 3     $ j y.n.n.n.j.Z 2     < 0 5 3 3 3 4 3 5 3 3 3 3 3 5 3 3 3 3 5 5 &     1 Z j.n.n.n.y.j +   . d x k k x f | R.",
"R.W.Z.x x x x f 3 .   # Z z a g Z 2     & s x x x x x x x x x x x x x x x x x x x x s &     2 Z g g z b #   O < f x x x x f } R.",
"R.R.Z.x x x x x n &                   . d x x x x x x x x x x n x x x x x x x x x k x d O                   & n x x n x x f | R."
};
