/* XPM */
static char *c3344b3dec2942d999fb05fd0c4aa6dbMNqhZEB8AFh5IG2f[] = {
/* columns rows colors chars-per-pixel */
"64 64 16 1 ",
"  c None",
". c black",
"X c #313139",
"o c #52525A",
"O c #7B5A52",
"+ c #C54141",
"@ c #FF625A",
"# c #BD9473",
"$ c #A452AC",
"% c #BD73CD",
"& c #7B94A4",
"* c #DEB494",
"= c #ACBDD5",
"- c #FFDECD",
"; c #D5DEEE",
": c white",
/* pixels */
"                             &&&oo                              ",
"                              &;==&o                            ",
"                               o====&o                          ",
"                             o&===&===o                         ",
"                            &====&===&&o                        ",
"                           &====o===&o&&o                       ",
"                          &==&==&;=&*#&&o                       ",
"                         &;=o;=o;=&--*o&&o                      ",
"                        &;&o;=&o=&----#&&o                      ",
"                         o&o=&o*&*----#&&&.                     ",
"                          o=&oo#---#o#&&&&&o                    ",
"                          &&o*:.--#.:-&*.o&&o                   ",
"                          &o&#-------*#*.ooo                    ",
"                          o o#---*--**Oo.&o                     ",
"                              #--****#.  o                      ",
"                              O#*OO#*O                          ",
"                               .#**OO.                          ",
"                               &..O#O=.                         ",
"                              &:+++;;=o.                        ",
"                            ..o;+++&;ooX.                       ",
"                           .Xoo+@@+.;XXX$..                     ",
"                          .$$$X+@@OoX$$$oXX.                    ",
"                          ..$Xo+@OoooX$$XXX.                    ",
"                       &&.X.Xoo++oooX%$XXXX.                    ",
"                      &=;XX.$Xo+ooXX%$XoXXX.                    ",
"                      .;:XX.%Xo.oXX%%XooXXX.                    ",
"                     .X====.$$X.XX$%$oo.X&;=&                   ",
"                    .XXX==o .oXXoX%%ooo.==:=&                   ",
"                  ..XXXX..  .ooXo%%%$o.o==&X.                   ",
"                 XooXXX.    .ooXoo%%%$. &XXX.                   ",
"                XooooX.     %ooXooo%%.  .XXX.                   ",
"               Xooooo.     .%$Xooo$%$.   .ooX.                  ",
"              OXoooo.      .$oXoo$%%X.   .ooo.                  ",
"             O*Xooo.      .$ooXooo$%$.   .ooo.                  ",
"            O*--XoX       .$ooXoooo$$$.  Xooo.                  ",
"            &&-***.      Xo$$oXooo$$$X. .oooo.                  ",
"            &:&.*O       .X$$oXoo$$$XX. .oooo.                  ",
"            .*.O*.       .oXXXXXXXXXXX. .oooo.                  ",
"            ..  O        XooooXooooooo. .#*#..                  ",
"                        .ooooX.oooooooo.#---.                   ",
"                        .oooooX.ooooooo.-#--.                   ",
"                        Xoooooo.XooooooX.#-*.                   ",
"                       .ooooooo..ooooooo.o=.                    ",
"                       .oooooo. .XooooooX*o                     ",
"                       .oooooo.  .oooooo.                       ",
"                       .oooooo.  .ooooooo.                      ",
"                       .oooooX.   Xoooooo.                      ",
"                      .Xooooo.    .ooooooo.                     ",
"                      .XooooXX     XoooooX.                     ",
"                      .XooXXX.     .oXoooX.                     ",
"                      .XXXXXX.     .X.ooXXX.                    ",
"                      .XXXXXX       .X.XXXX.                    ",
"                      XXXXXX.       .X.XXXXX.                   ",
"                     .XXXXXX.        .XXXXXX.                   ",
"                     .XXXXX.         .XXXXXX.                   ",
"                     .XXXXX.          .XXXXX.                   ",
"                     .XXXXX.          .XXXXX.                   ",
"                     .XXXXX.          .XXXXX.                   ",
"                     .XXXXX.          .XXXXXX.                  ",
"                    XX.....            .XXXXX.                  ",
"                   .oooXXX.            .....X.                  ",
"                   $$$$$..             .ooX...                  ",
"                    ....               .$$$$.                   ",
"                                        ....                    "
};
