/* XPM */
static char *_05d5dd4b2a94bdfbbba765aa9535f74oKf7EvTKyWT4UWje[] = {
/* columns rows colors chars-per-pixel */
"64 64 16 1 ",
"  c None",
". c #627B9C",
"X c white",
"o c #31416A",
"O c #182952",
"+ c #DEE6EE",
"@ c #4A5A83",
"# c black",
"$ c #CD8373",
"% c #7B5A52",
"& c #FFDECD",
"* c #DEA494",
"= c #BD9C5A",
"- c #FFC55A",
"; c #C54141",
": c #FF625A",
/* pixels */
"                                                                ",
"                                                                ",
"                                                                ",
"                                                                ",
"                                                                ",
"                                                                ",
"                                                                ",
"                                                                ",
"                                                                ",
"                                                                ",
"                                                                ",
"                                                                ",
"                                                                ",
"                                                                ",
"                                  ...                           ",
"                                ..XXX...                        ",
"                              ..XXXXXXXoooO                     ",
"                    ....    ..XXXXXXXXXX+.ooO                   ",
"                    @XX+....XXXXXXXXXXXXX++ooo                  ",
"                    .+XXXX.XXXXXXXXX++++++++o.O                 ",
"                     .+XX+XXXXXXXXX++++++++.o.O                 ",
"                     @++XXXXXXXXXXX++++++++ooo.O                ",
"                     @.XXX+X+XXXXX++++++++oooo.O                ",
"                     @XXX+X+XXXXXX++++++.oooooo.O               ",
"                    @XX++++X+XXXX+++++##ooooooo.O               ",
"     $%            @++++++++++XXX+++##ooooooooooO               ",
"    $&*%    %$$   @++++++++++++X+++#ooooooooooOO                ",
"   $&**%    %&*$ @++++++++++++OX+++Ooooooooooo*%                ",
"   $**==%   %**$@++++++++++++@O++++OooooooooOO%$                ",
"    %=---%%%**$@++++@@+++++++@OO+++OoooooooO**o%                ",
"   %%---------$ @@@   @+++++@###++OooooooOO**X#*                ",
"   %-=--oo--==%       @+++++@###O+OoOooo#O***Xo*                ",
"   %--=oooO-===%       @+++@#####+OOoO##$O&**X.*%               ",
"    %-o@@OO--==%       @+++@######O#O#O*$&&&&&X&%               ",
"    $-=@@O=-=%%O        @+@######O#OOO%*$&&&&&&&&%              ",
"    %-o@@O===ooo#       @+@#####O#O#OO$%$&&&&&&&*               ",
"     =o@@O==Oooo#        @  #####O#OOO$%*$&&&&&&%               ",
"       %%%%%Ooooo#           O##OOOOO$$$%%*&&&*$                ",
"           #%oooo#            ###OOOO$$$$**&&&&%                ",
"           #;Ooooo#            ###OO$$$$$$**&&$                 ",
"            #%Oooo#               ##$$$$$$$$$%                  ",
"            #;OOooo#                #%%%OOO%                    ",
"             #%OOoo#          OOOO##====###                     ",
"             #;OOOOOO    ####O;;;%%;%====#                      ",
"              ;%OOOO###oooO;;;;;OOO;;;%==##                     ",
"              #;OOOooooO;;;;;%OOOOO@;;;;%%%#                    ",
"              #;%OoooO;;;;%OOOOOOOOO@;;%%===#                   ",
"              O;;OOO;;;;%OOOOOOOOOO%%%--====#                   ",
"               #;;;;;;%OOOOOOOOOO%%------=@%%#                  ",
"               #;;;%OOOOOOOOOOO%%=------%%::@#                  ",
"                #OOOOOO######%%====---=%.::::@#                 ",
"                 ##OO##    %%%======-=@..::::@#                 ",
"                         %%---%%===-=%@..:::.@#                 ",
"                        %-------%%==%#@..:::.@#                 ",
"                       %=--------=%%O#@@.::;.@#                 ",
"                      %==-------=%%OO#@@;::;@#                  ",
"                      %===----===%%OO#@@;;;@@#                  ",
"                     %==========%%OO#@@@;;;@#                   ",
"                     %========%%==%O#@@;;;@@#                   ",
"                     %=======%====%#@@@;;;@#                    ",
"                    %%oo===%%=====%#@@####@#                    ",
"                    %o..o%%%======#o@@@;;;###                   ",
"                    %o..%=%======#oooo@@;;;:;###                ",
"                    %o.o==%======#oooooo@@@@;;;;##              "
};
