/* XPM */
static char *f1e8b48fdd084c7290256c410f257cf50XMpnstesxrsoAOy[] = {
/* columns rows colors chars-per-pixel */
"64 64 16 1 ",
"  c None",
". c #627B9C",
"X c white",
"o c #31416A",
"O c #182952",
"+ c #DEE6EE",
"@ c #4A5A83",
"# c black",
"$ c #DEA494",
"% c #7B5A52",
"& c #CD8373",
"* c #FFDECD",
"= c #BD9C5A",
"- c #FFC55A",
"; c #C54141",
": c #FF625A",
/* pixels */
"                                                                ",
"                                                                ",
"                                                                ",
"                                                                ",
"                                                                ",
"                                                                ",
"                                                                ",
"                                                                ",
"                                                                ",
"                                                                ",
"                                                                ",
"                                                                ",
"                                                                ",
"                             ...                                ",
"                           ..XXX...                             ",
"                         ..XXXXXXXoooO                          ",
"               ....    ..XXXXXXXXXX+.ooO                        ",
"               @XX+....XXXXXXXXXXXXX++ooo                       ",
"               .+XXXX.XXXXXXXXX++++++++o.O                      ",
"                .+XX+XXXXXXXXX++++++++.o.O                      ",
"                @++XXXXXXXXXXX++++++++ooo.O                     ",
"                @.XXX+X+XXXXX++++++++oooo.O                     ",
"                @XXX+X+XXXXXX++++++.oooooo.O                    ",
"               @XX++++X+XXXX+++++##ooooooo.O                    ",
"              @++++++++++XXX+++##ooooooooooO                    ",
"             @++++++++++++X+++#ooooooooooOO                     ",
"            @++++++++++++OX+++Ooooooooooo$%                     ",
"           @++++++++++++@O++++OooooooooOO%&                     ",
"          @++++@@+++++++@OO+++OoooooooO$$o%                     ",
"           @@@   @+++++@###++OooooooOO$$X#$                     ",
"                 @+++++@###O+OoOooo#O$$$Xo$                     ",
"                  @+++@#####+OOoO##&O*$$X.$%                    ",
"                  @+++@######O#O#O$&*****X*%                    ",
"                   @+@######O#OOO%$&********%                   ",
"                   @+@#####O#O#OO&%&*******$                    ",
"                    @  #####O#OOO&%$&******%                    ",
"                        O##OOOOO&&&%%$***$&                     ",
"    &&%                  ###OOOO&&&&$$****%                     ",
"   &**&                   ###OO&&&&&&$$**&                      ",
"   &**%                      ##&&&&&&&&&%                       ",
" &&$==%                        #%%%%&%%                         ",
"&*%=--%    %%                 #%====-%  %%%#O                   ",
"&$%----%  %**&                #===%%;;%%--%@@OO                 ",
"&%------%%$$*&               #=;;;;;;;%---%@@o:%O               ",
"&--==oo--=$$&              ##;;;;;;%@@%---%@.o.:%O              ",
"%-=o@@oO---&             ##..........%----%..@@.::%O            ",
"%=o@@OO--==%            #o...........%---=%.@@o...::%OO         ",
"%o@@O=---==%          OO:o..........%=====%@@@o@....:::%OOO     ",
" o@O===-==%          O::.o@@....@@%%======%@@@o@@@.....::::%oO  ",
"  O=====%%           O:..oo@@@@@@%%=%%%====@@o@@@@@@........:;O ",
"  %%===OO#          O:..@ooooooo%-%----%%==%@o@@@@@@@@@......@o ",
"   %=#;::.O         O...@oooooo%=-%------%%%@O###O@@@@@@@...@@@O",
"    #O;::.#        O:..@ooooooo===%--------%@O#  ###O@@@@@@@@@@O",
"    OOO:::.O      O:..@oooOooo%===%==-----%-@O      ##O@@@@oo@@O",
"    #OO;::.#     O:;.@ooooOoo%====%===-=--%=% ##%  ###OOO@@@ooO ",
"    #OO;;;:.#   O::..oooo##Oo%====%==-=-=%==%#%==##OOOOOOOOooO  ",
"    #OOO;;;OO###::..@ooo#  #%=====%=====%===%#%%%%#OOOOOOOOOO   ",
"     #OOO;;;;%::...@ooo#   #%=====%=====%===%#O%%%#OOOOOo#O     ",
"     #OOO;;;%;...@oooo#    #%=====%====%====%#%%%%O##O##        ",
"      #OOO;#...@ooooo#     #%%====%oo=%=====%#%OOO%%%%%O        ",
"      #OOOO#.@oooooo#      #%%%===o..o======%%OO%%%%%OO         ",
"       ##O#ooooooo@#        #%%%%=o..o=====%%#  OOOOO           ",
"         ##oooooo@@#        #%%%%%o.o====%%%#                   ",
"          ##ooooo@#         #%%%%%o.o%%%%%%%#                   "
};
