/* XPM */
static char *e6b68723f8cd49b2b9b5a03526cf5edeIriqBkft4qFBqw6P[] = {
/* columns rows colors chars-per-pixel */
"64 64 16 1 ",
"  c None",
". c black",
"X c #182952",
"o c #31416A",
"O c #7B5A52",
"+ c #C54141",
"@ c #FF625A",
"# c #BD9C5A",
"$ c #CD8373",
"% c #FFC55A",
"& c #4A5A83",
"* c #627B9C",
"= c #DEA494",
"- c #FFDECD",
"; c #DEE6EE",
": c white",
/* pixels */
"                                                                ",
"                                                                ",
"                                                                ",
"                                                                ",
"                                                                ",
"                                                                ",
"                                                                ",
"                                                                ",
"                                                                ",
"                                                                ",
"                                                                ",
"                                                                ",
"                                 ***                            ",
"                               **:::***                         ",
"                             **:::::::oooX                      ",
"                   ****    **::::::::::;*ooX                    ",
"                   &::;****:::::::::::::;;ooo                   ",
"                   *;::::*:::::::::;;;;;;;;o*X                  ",
"                    *;::;:::::::::;;;;;;;;*o*X                  ",
"                    &;;:::::::::::;;;;;;;;ooo*X                 ",
"                    &*:::;:;:::::;;;;;;;;oooo*X                 ",
"                    &:::;:;::::::;;;;;;*oooooo*X                ",
"                   &::;;;;:;::::;;;;;..ooooooo*X                ",
"                  &;;;;;;;;;;:::;;;..ooooooooooX                ",
"                 &;;;;;;;;;;;;:;;;.ooooooooooXX                 ",
"                &;;;;;;;;;;;;X:;;;Xoooooooooo=O                 ",
"               &;;;;;;;;;;;;&X;;;;XooooooooXXO$                 ",
"              &;;;;&&;;;;;;;&XX;;;XoooooooX==oO                 ",
"               &&&   &;;;;;&...;;XooooooXX==:.=                 ",
"                     &;;;;;&...X;XoXooo.X===:o=                 ",
"                      &;;;&.....;XXoX..$X-==:*=O                ",
"                      &;;;&......X.X.X=$-----:-O                ",
"                       &;&......X.XXXO=$--------O               ",
"                       &;&.....X.X.XX$O$-------=                ",
"                        &  .....X.XXX$O=$------O                ",
"                            X..XXXXX$$$OO=---=$                 ",
"                             ...XXXX$$$$==----O                 ",
"                              ...XX$$$$$$==--$                  ",
"                                 ..$$$$$$$$$O                   ",
"                                   .OOOO$OO                     ",
"                                   .O###%O                      ",
"                                   .####%%O                     ",
"                                ...@++++++OO                    ",
"                              ..*++++++++O%%O..                 ",
"                            ..@*********O%%%O@@..               ",
"                          XX+&**********O%%%O&*&@XX             ",
"                         X++o&&&*******O%%%#O&*&*@@X            ",
"                         X+oooo&&&&&OO######O*&o&*@X            ",
"                        X+ooooooo&&OOOO#####O*&oo&*@X           ",
"                        X+ooooooooO%O%%OO###O&ooo&*@X           ",
"                       X+ooooooooO#%O%%%%OO##&oooo&*@X          ",
"                       X+oooooXoo###O%%%%%%O#Ooooo&&@X          ",
"                      X+ooooooXoO###O##%%%%%OOooooo&*@X         ",
"                     X+oooooo.XO###O##%#%%%%%Oo.oooo&+@X        ",
"                    .+oooooo. .O###O###%#%#%OOX .oooo&+@.       ",
"                   .+oooooo. .O####O######%OO%.  .oooo&*@.      ",
"                  .Ooooooo.  .O####O######O##O.   .oooo&*O..    ",
"                 .Ooooooo.   .O####O#####O###O.    .ooooo&OO.   ",
"                .ooooooo.    .O####ooo#OO####O.     .oooooooX.  ",
"               .XXXoooo.     .OO###o**o######O.      .ooooXXX.  ",
"               .XXXXXXo.     .OOO##o**o######.       .oXXXXXX.  ",
"              .XXXXXXX.       .OOOOo*o#######.        .XXXXXX.  ",
"              .XXXXXXX.       .OOOOo*oOOO###O.        .XXXXX.   ",
"              .XXXXXX.        .OOOOooOOOOOOO..       .XXXXXX.   "
};
