/* XPM */
static char *_742ace641c742c0eaa78e8242164f93Ccz06QqU4Iw580Ah[] = {
/* columns rows colors chars-per-pixel */
"64 64 16 1 ",
"  c None",
". c black",
"X c #182952",
"o c #31416A",
"O c #7B5A52",
"+ c #C54141",
"@ c #FF625A",
"# c #BD9C5A",
"$ c #CD8373",
"% c #FFC55A",
"& c #4A5A83",
"* c #627B9C",
"= c #DEA494",
"- c #FFDECD",
"; c #DEE6EE",
": c white",
/* pixels */
"                                                                ",
"                                                                ",
"                                                                ",
"                                                                ",
"                                                                ",
"                                                                ",
"                                                                ",
"                                                                ",
"                                                                ",
"                                                                ",
"                                                                ",
"                                                                ",
"                                                                ",
"                                                                ",
"                                                                ",
"                       ***                                      ",
"                     **:::***                                   ",
"                   **:::::::oooX                                ",
"         ****    **::::::::::;*ooX                              ",
"         &::;****:::::::::::::;;ooo                             ",
"         *;::::*:::::::::;;;;;;;;o*X                            ",
"          *;::;:::::::::;;;;;;;;*o*X                            ",
"          &;;:::::::::::;;;;;;;;ooo*X                           ",
"          &*:::;:;:::::;;;;;;;;oooo*X                 OOO       ",
"          &:::;:;::::::;;;;;;*oooooo*X              oo%%$$$$    ",
"         &::;;;;:;::::;;;;;..ooooooo*X            OX&&o%%O=-$   ",
"        &;;;;;;;;;;:::;;;..ooooooooooX           OO%X&&o##OO$   ",
"       &;;;;;;;;;;;;:;;;.ooooooooooXX.        ...#%%%X&&X%%#=$$ ",
"      &;;;;;;;;;;;;X:;;;Xoooooooooo=O      ..X*++.####X&X%%%#--$",
"     &;;;;;;;;;;;;&X;;;;XooooooooXXO$    .X*++****.###Xoo####--$",
"    &;;;;&&;;;;;;;&XX;;;XoooooooX==oO  .X*++****&o.####Xo##OOO+O",
"     &&&   &;;;;;&...;;XooooooXX==:.= .*+++****oooo#######O     ",
"           &;;;;;&...X;XoXooo.X===:o=.+++***&&ooo..###%#O       ",
"            &;;;&.....;XXoX..$X-==:*=O+&**&oooo..  O##%=O       ",
"            &;;;&......X.X.X=$-----:-O&&&ooooo.     OO$==O      ",
"             &;&......X.XXXO=$--------Ooooooo.         $=-O     ",
"             &;&.....X.X.XX$O$-------=oooooo.           --O     ",
"              &  .....X.XXX$O=$------Oooooo.            $$      ",
"                  X..XXXXX$$$OO=---=$oooo..                     ",
"                   ...XXXX$$$$==----Oooo.                       ",
"                    ...XX$$$$$$==--$oo..                        ",
"                      ...$$$$$$$$$OXX.                          ",
"                      .%.O$$O...OXXX.                           ",
"                OOOOO.%%###OO.XXXXX.                            ",
"              OO##OO.&%######XXXXX.                             ",
"             O##OO%%%OXX####XXXXX.                              ",
"            O##.%%%%%%O+XXXX+XX..                               ",
"           O#..@OO%%%%#O++X+++X.                                ",
"          O#.***@@O%#%##O++X++.                                 ",
"         O.O++***++O%###O++X++.                                 ",
"         .@@++***++O#####O+X+.                                  ",
"        X@@+++&&**++O####O+X+.                                  ",
"       X@@@++ooo&&++O#####OX+.                                  ",
"      X@@@++oooooo&++O####OX+.                                  ",
"     X@@@++oooooooo++O#####X+.                                  ",
"    .@@@+&ooooo..oo&+O####OO.                                   ",
"   .@@@+ooooo...oooo&+O##O#O.                                   ",
"  X@@++oooo..#.oooooooOOO###.                                   ",
"  .+++oooo.###.XooooooO####.                                    ",
" .++++ooo.OO##.XXoooooX####.                                    ",
" .+++ooo.OOOOO.XXXXoooXO###.                                    ",
".+++oooX.OOOOO.XXXXXXXXO##.                                     ",
".+++ooooX.OOO.XXXXXXXXXO##.                                     ",
".++++ooooo.OO.XXXXXXXXX.#.                                      "
};
