/* XPM */
static char *d5b78904cc73464b9a88784848a083d2l2NN1e5JjTU3qUx5[] = {
/* columns rows colors chars-per-pixel */
"64 64 209 2 ",
"   c #A6782A",
".  c #AB7B2D",
"X  c #A47D33",
"o  c #A97D31",
"O  c #57BA47",
"+  c #5BBE4A",
"@  c #58BB47",
"#  c #6FAE5C",
"$  c #73AF5A",
"%  c #67B852",
"&  c #79B455",
"*  c #60BF4E",
"=  c #7FA667",
"-  c #5EC14E",
";  c #5FC450",
":  c #60C34F",
">  c #62C552",
",  c #66C955",
"<  c #68CB57",
"1  c #6ACD5A",
"2  c #6ED15E",
"3  c #70D35F",
"4  c #79C358",
"5  c #72D562",
"6  c #76D965",
"7  c #78DB67",
"8  c #7ADD69",
"9  c #77DC68",
"0  c #6FD360",
"q  c #7EE16D",
"w  c #9E8B3F",
"e  c #A4813C",
"r  c #A28739",
"t  c #9D8748",
"y  c #969949",
"u  c #988D57",
"i  c #95945C",
"p  c #9A9555",
"a  c #8D9F51",
"s  c #A08A41",
"d  c #B48B44",
"f  c #B38C48",
"g  c #B09153",
"h  c #87A258",
"j  c #89B453",
"k  c #92BD5C",
"l  c #9AA755",
"z  c #8D9C66",
"x  c #979868",
"c  c #989D74",
"v  c #AA9864",
"b  c #81A563",
"n  c #9AA77A",
"m  c #98B370",
"M  c #A5A075",
"N  c #C7A66F",
"B  c #C8A66E",
"V  c #C4AA78",
"C  c #81CA5E",
"Z  c #8EDB71",
"A  c #93CF71",
"S  c #80E36F",
"D  c #83E572",
"F  c #86EA75",
"G  c #88EA77",
"H  c #8BED7A",
"J  c #88E676",
"K  c #92E67C",
"L  c #8DF17D",
"P  c #90F37F",
"I  c #9FA980",
"U  c #9FB482",
"Y  c #A4AC84",
"T  c #A7AE89",
"R  c #A7B085",
"E  c #A8B086",
"W  c #ABB38A",
"Q  c #ACBA8B",
"!  c #A5B886",
"~  c #B9B48B",
"^  c #B4BC94",
"/  c #B5BC98",
"(  c #BBB897",
")  c #ACB492",
"_  c #BABEA1",
"`  c #9DC583",
"'  c #9CDC86",
"]  c #A8C88B",
"[  c #A4DC8C",
"{  c #B2C291",
"}  c #B4CB94",
"|  c #BDC59C",
" . c #BBCA9A",
".. c #AED592",
"X. c #BCDE9C",
"o. c #B8D497",
"O. c #96EC82",
"+. c #99ED85",
"@. c #9EED89",
"#. c #94F482",
"$. c #99F486",
"%. c #96F885",
"&. c #98FA87",
"*. c #9DF589",
"=. c #9DFA8B",
"-. c #A2ED8C",
";. c #A2F68D",
":. c #A2FA8E",
">. c #ACEA94",
",. c #ADE294",
"<. c #B6E59B",
"1. c #BBE49D",
"2. c #B4EA9B",
"3. c #BDEF9F",
"4. c #A6F590",
"5. c #ABF494",
"6. c #A6F991",
"7. c #ACFA95",
"8. c #AFFC99",
"9. c #B0F997",
"0. c #B4F699",
"q. c #BBF69D",
"w. c #B3FB9B",
"e. c #B9F99D",
"r. c #B1F797",
"t. c #BEDEA1",
"y. c #BCC3A8",
"u. c #BCE4A1",
"i. c #BFF5A0",
"p. c #B4FEA3",
"a. c #BDFBA2",
"s. c #BBFEA9",
"d. c #C0C89F",
"f. c #C0D79F",
"g. c #C0EA9F",
"h. c #C0E69E",
"j. c #C0F59F",
"k. c #C5CDA4",
"l. c #C3CAAB",
"z. c #DEC8A5",
"x. c #DBCBAC",
"c. c #C4D4A4",
"v. c #C3DBA5",
"b. c #CCD4AA",
"n. c #C7DAA8",
"m. c #C7CDB3",
"M. c #C8CDB3",
"N. c #D6D2BD",
"B. c #D9CEB4",
"V. c #C2E2A4",
"C. c #C1EDA1",
"Z. c #C4F5A3",
"A. c #C8F6A7",
"S. c #C2FAA6",
"D. c #CAF7A9",
"F. c #C5FCA9",
"G. c #CDFAAD",
"H. c #D0F9AE",
"J. c #CCFEBB",
"K. c #CAFDB1",
"L. c #D4FBB3",
"P. c #D8FAB5",
"I. c #DBFCBB",
"U. c #D0FEBF",
"Y. c #E1FDBE",
"T. c #DADECE",
"R. c #D5D9C8",
"E. c #DBFEC3",
"W. c #DDE1D1",
"Q. c #EBE0CD",
"!. c #E3FDC3",
"~. c #EAFEC5",
"^. c #E5FECB",
"/. c #ECFECB",
"(. c #F2FECD",
"). c #E7E6DC",
"_. c #EEEADF",
"`. c #E9E3D4",
"'. c #E2FFD2",
"]. c #EBFED4",
"[. c #EDFEDA",
"{. c #F5FED3",
"}. c #F9FED5",
"|. c #F2FFDE",
" X c #F4FED9",
".X c #FCFFD9",
"XX c #FAFFDE",
"oX c #FAFEDA",
"OX c #EBECE3",
"+X c #E7E9E0",
"@X c #F6FFE1",
"#X c #F2FFE5",
"$X c #F3FEE5",
"%X c #F8FFE3",
"&X c #F4F6EC",
"*X c #F7FFE9",
"=X c #F4FDE9",
"-X c #F4FDEA",
";X c #F8FFEA",
":X c #F7F6F1",
">X c #F7F6F0",
",X c #F7F6F2",
"<X c #F8F6F2",
"1X c #FAFFF2",
"2X c #FBFFF3",
"3X c #F9FDF2",
"4X c #FBFDF6",
"5X c #FCFDF8",
"6X c #FDFDF9",
/* pixels */
"_._._._.+X_._._._._._._._._._._._._._._._._.OX_._._._._.OX_._._._._._._._._._._._._._._._._.OX_._._._._._._._._._._._._._._._._.",
"&X&X&X&X&X&X&X&X<X<X<X<X<X&X<X<X<X&X<X<X<X<X-X,X<X<X<X<X<X<X<X<X<X<X<X<X<X<X<X<X<X&X<X<X<X<X<X-X<X<X<X<X>X>X<X<X>X>X>X&X&X&X&X&X",
"-X-X#X#X-X-X-X,X4X6X6X6X6X6X6X6X6X6X6X6X6X6X6X6X4X6X6X6X6X6X5X5X6X6X6X6X6X6X6X6X6X6X6X6X6X6X6X6X6X6X4X4X6X6X6X6X6X4X4X*X-X-X#X#X",
"].].].].].[.#X&X;X3X3X4X3X3X3X3X3X3X3X3X3X3X3X3X;X4X4X4X3X3X4X4X6X4X4X;X;X4X4X6X4X4X;X4X3X3X3X3X;X4X3X4X3X3X3X3X3X;X*X#X[.[.].].",
"E.^.E.!.^.^.].[.|.*X*X*X*X*X*X*X*X*X*X*X*X*X*X*X*X*X-X#X#X#X#X#X#X#X#X#X*X#X#X#X*X*X*X*X;X*X*X*X*X*X*X*X*X*X*X*X$X@X[.].^.!.!.E.",
"U.P.P.P.P.I.!.^.].[.|.|.|.|.@X@X@X%X%X%X%X%X%X@X|.[.'.'.'.'.'.'.'.'.'.'.'.'.'.].[.|.|.%X%X%X%X%X%X%X@X@X@X[.|.|.[._.'.!.U.P.P.I.",
"H.H.H.H.H.L.I.E.^.].].].].[. X XoXXXXX%XXXXXXXXX X'.E.E.J.J.J.J.J.J.J.J.J.E.E.E.^. X.XXXXXXXXXXXXXXX X X[.].].].].^.E.I.L.H.H.H.",
"D.D.D.D.D.G.L.I.E.!.!.^.~.^./.{..X.X.X.X.X.X.X}./.I.K.s.p.p.p.p.p.p.p.p.p.p.s.s.E.^.}..X.X.X.X.XoX}.}././.!.!.^.!.E.I.L.H.D.A.D.",
"Z.A.A.Z.A.A.H.L.P.I.I.I.!.!./.(.(.}.{.{.(.{.(.(.!.G.a.6.:.=.=.:.=.&.=.=.=.6.6.p.G.I./.{.(.{.}.}.}.{.(.~.!.!.I.I.I.I.P.D.D.Z.Z.Z.",
"Z.Z.C.Z.Z.Z.A.H.H.P.L.P.P.I.~.~.(.(.~.~.Y.Y.Y.I.L.a.6.%.%.P P P #.#.#.#.P P #.6.a.L.I.!.Y.!.Y.~.~.(./.~.Y.P.P.L.P.H.G.D.A.C.Z.Z.",
"Z.Z.Z.j.Z.Z.D.D.G.G.G.H.H.P.Y.Y.!.Y.I.L.H.G.G.F.e.5.#.H F F F F q H q H F F H #.5.e.F.G.F.G.L.I.Y.~.Y.Y.P.H.G.H.G.D.D.A.Z.Z.A.Z.",
"Z.Z.Z.C.Z.Z.Z.A.D.D.A.A.D.H.P.P.I.L.F.a.w.w.8.8.:.$.H F q q S q q q q q q S D H #.:.7.w.w.w.p.F.H.Y.I.P.H.D.A.A.D.A.A.A.Z.Z.Z.Z.",
"Z.Z.Z.Z.Z.Z.Z.Z.Z.Z.Z.Z.C.A.G.L.G.F.w.7.:.&.=.#.#.H D S 8 8 8 8 q q 9 9 q 9 q D H #.&.=.&.:.6.w.F.G.L.G.S.Z.Z.Z.Z.Z.A.C.Z.Z.C.Z.",
"A.Z.Z.Z.Z.Z.Z.Z.Z.Z.q.e.q.i.a.S.s.w.6.$.L L L L H D S 8 6 8 8 6 9 q 9 9 9 9 8 q D J L L L L $.;.w.a.S.S.e.e.e.e.Z.Z.Z.Z.Z.Z.Z.Z.",
"A.Z.j.C.Z.Z.Z.Z.Z.j.e.r.8.8.w.8.8.4.$.H F F D F D D 8 8 8 6 6 8 9 6 6 6 9 6 8 8 S D D D D G L $.:.8.8.8.w.w.0.0.q.Z.Z.Z.Z.Z.Z.Z.",
"A.A.Z.Z.Z.Z.Z.Z.j.e.r.6.:.:.:.:.;.$.H F q q q q q 8 8 8 8 8 8 q q q q 9 8 8 8 8 q q q q q S D H #.=.:.:.:.:.6.0.q.q.Z.Z.Z.Z.j.Z.",
"A.Z.Z.Z.C.Z.Z.j.q.0.5.:.$.%.#.%.P L D q q 9 q 9 8 8 8 8 8 q S S q q q q q 8 8 9 8 8 8 8 8 8 q F H P #.&.%.$.:.4.0.q.j.j.j.Z.Z.j.",
"A.A.Z.Z.Z.j.j.e.0.6.;.$.P L L L H D q 9 q 6 6 6 6 8 7 8 q S D G H G G F D q 8 8 7 7 7 6 7 8 8 q D L G L L P #.;.7.r.e.j.Z.Z.Z.Z.",
"Z.Z.Z.Z.Z.j.e.9.6.;.#.L J D D S q q q q 8 6 8 8 8 7 8 q S J L L #.#.L L G D q 9 8 7 8 8 8 8 8 q q q D D D G H #.;.7.r.e.j.Z.C.Z.",
"Z.Z.A.Z.A.j.e.9.6.$.#.G S q q q q q q q 8 q 8 8 7 8 7 8 S H P %.&.&.#.#.H D q 9 7 8 8 8 8 8 8 q q q q q q D J L #.6.9.e.j.Z.A.A.",
"Z.Z.Z.A.A.Z.e.w.:.%.L F q 8 7 7 8 q S S q S q q 8 9 8 q D H %.&.&.=.=.%.H F 8 9 7 7 8 q q q D q q 8 8 6 8 q D L %.:.8.e.Z.A.A.A.",
"Z.Z.A.G.G.D.S.w.6.%.L q 8 7 7 7 8 S D G F D S q 8 8 6 q D L %.=.=.=.&.%.H F Z 9 8 8 q q F G F F q q 8 6 8 8 q L %.:.w.a.F.H.G.A.",
"Z.A.A.H.L.G.S.w.6.#.H D q 7 7 7 q S G L L G S q 8 6 6 q D H %.&.=.&.&.%.H F 8 8 7 7 q D H H H H S q 6 6 7 8 S L %.:.w.S.G.H.H.A.",
"Z.A.D.G.G.F.S.8.=.#.F D 7 7 6 7 q D G L P G S 8 6 6 8 q D H P %.&.&.%.#.H F 8 7 7 7 8 q H H L H D q 8 6 6 8 q G P =.w.s.G.H.G.A.",
"Z.Z.A.D.F.F.e.6.$.H S 8 5 5 5 6 q S J L H D q 6 5 5 6 8 S F H P #.#.L L G D q 9 6 5 6 7 F H H H F 8 6 6 3 6 9 S H #.6.w.S.F.F.Z.",
"Z.Z.Z.a.e.w.:.*.H D 7 3 1 1 5 5 8 S D D D 8 5 1 1 2 5 8 S S D J F F G D q q q 5 1 1 1 5 7 D F F q 8 6 2 1 1 2 9 D H $.6.w.a.a.S.",
"Z.Z.q.w.9.;.$.L J 8 3 < , , 1 5 6 8 q q 8 5 1 , > 1 5 6 8 8 S S q q q q q q 6 0 1 , , 1 5 7 8 8 8 8 3 1 , > , 3 8 D K $.:.7.0.e.",
"q.e.r.7.;.P P F q 7 1 > + > , 1 3 6 6 6 3 1 > - > , 1 5 6 8 8 8 q q q q 6 9 2 2 , > + , 1 1 6 7 6 5 2 , > : > 1 6 8 G L #.;.6.0.",
"e.r.5.;.P H F S 8 5 1 > + - > < 1 2 3 1 < > - + + > , 1 3 5 8 8 8 8 8 8 5 2 2 , > + + + > , 1 1 1 1 , > - + > 1 3 q S F H #.*.4.",
"9.6.;.P H F S S 8 5 1 > + + + > > > > : : : + + + + - , 1 3 5 8 8 8 8 6 3 2 > : - + + + + > , , , > > + + - : 1 5 8 q q F H P *.",
"6.:.#.H D S 8 S 7 3 1 > : + + - - - - - : - - + + + + > , 1 5 7 6 6 6 3 2 > : - + + + + - : - - - + - + - - > < 3 6 8 8 S D K #.",
"6.=.P H S q 3 3 3 3 1 < > : + + - + - - : : : : - + + - : , 1 3 6 3 3 2 , - + - + + : > > : : - + + + + - > , 2 3 3 6 6 q S J P ",
"6.&.#.G q 7 5 0 1 1 1 1 < > ; - + + > , , , 1 , , > + + + > , < < < < > > + + + * , , 1 < , , > + + + > , , < < < 2 2 5 7 q G #.",
"6.=.#.G q 7 0 1 , , < 1 2 1 , - : * > 1 0 0 5 5 1 , - + + + : > : > : : - - + - > 1 2 5 5 2 1 , > + + , 1 1 2 < , , < 0 7 q q #.",
"8.6.#.H D 8 0 < > > , 1 2 2 < - + > 1 5 6 7 8 7 5 1 > : + + + : : : : : - - - > 1 5 6 8 7 6 5 1 > * > , 2 0 1 < ; ; , 0 9 q #.#.",
"8.6.*.#.H q 5 < - + ; < 1 < > - > > 1 5 7 8 8 8 6 1 1 , , > > : > > : > > > , 1 2 6 8 8 8 8 5 1 > * + , < 1 < ; * ; , 5 q F #.%.",
"a.r.4.*.O.D 9 1 > + + > > > > - + , 1 5 7 8 8 8 7 6 1 1 1 1 1 1 1 1 < 1 1 1 1 3 5 7 8 8 8 7 7 1 > - - - > < ; - + ; 1 8 J #.$.4.",
"a.e.0.6.$.#.q 0 > * + - - - + + : > 1 6 7 8 8 8 7 6 6 6 5 5 3 5 3 5 5 3 5 5 5 5 6 7 7 8 8 7 6 1 > - O - - - - + - > 2 q #.$.4.5.",
"Z.q.w.9.6.#.J 9 2 , - + + + O + + > 1 5 7 7 7 6 5 6 5 5 5 6 6 7 8 8 7 7 6 5 5 5 6 6 6 6 8 7 6 1 > * + O @ + + - > 1 7 J $.6.8.0.",
"Z.Z.i.e.r.4.+.J 6 2 , ; + O O O + > 1 6 7 6 5 5 1 1 5 1 5 6 6 7 8 8 8 7 6 5 3 3 1 1 2 5 7 7 6 1 , + O O O + - , 1 7 D O.;.9.e.a.",
"S.Z.j.j.e.r.;.O.J 8 5 , + + O O + , 1 5 7 5 1 1 > , > < 1 5 6 7 8 8 8 6 5 1 , , > , < 1 6 6 5 1 > + O O O + > 0 8 J O.;.r.0.j.Z.",
"Z.Z.Z.Z.q.0.r.;.#.F 7 1 * + O O + > 1 5 5 2 < > - + : > , 1 6 7 8 q 8 5 2 < > + + : > < 1 5 5 1 < - O + + - 1 7 J #.:.9.0.j.Z.j.",
"g.g.g.g.C.q.e.6.$.#.D 5 > - + * > , 1 1 1 1 > + + + + + , 1 5 7 8 8 8 3 2 > + + O + + > 1 1 1 1 < - * + - < 0 q L *.7.0.q.Z.C.g.",
"X.X.X.h.C.q.e.9.;.#.F 7 2 < , < < 1 < 1 1 , * + O O O + > 1 5 7 8 S 8 3 1 > + O O @ + : > , 1 1 < < < > < 1 6 F #.:.7.w.j.g.h.1.",
"o.} o.1.g.j.0.9.:.#.H 8 6 2 2 2 3 1 < , - - + + O O O + > 1 5 9 q q 8 3 2 : + + O O + + + > , < 1 2 0 2 3 5 q F #.=.7.0.q.h.X.o.",
"} { } o.g.j.0.9.;.$.H F q 8 8 9 6 3 1 > - + + + O O O + - 1 2 6 6 6 6 3 1 : + @ O O O + + + > 1 0 7 7 7 8 q F H #.4.r.q.q.h.o.} ",
"Q Q ^ } V.C.g.0.5.;.O.H D D S D q 7 2 , > + + @ O O O + - , 2 2 3 3 3 1 < : + O O O O + + > , 3 9 q q D D J H +.;.>.0.i.h.h. .} ",
"Q Q ^  .X.V.V.V.1.>.-.O.L L H L G S 7 3 < > + @ O O O + - > , < 1 1 1 , : * @ @ O O + + > < 1 7 q F H L H H +.-.>.2.h.V.V.f. .^ ",
"R Q ^ d.c.c.n.V.v.<.>.-.$.#.%.#.#.G q 6 0 , ; - - - O - @ - - - - - - - - - @ - - O - ; < 2 7 q G #.#.#.#.$.-.>.<.u.V.n.n.c. .^ ",
"n Q ^ | k.b.b.b.n.v.u.>.4.4.=.=.$.O.#.q 9 0 1 , ; - - - - - + O - - - - @ - - - - ; ; 1 0 6 D H #.$.=.=.*.4.>.u.v.n.b.b.b.b.| ^ ",
"M W ^ | k.b.b.b.b.n.V.2.2.5.5.>.4.@.O.H D q 9 9 2 1 ; ; ; - + @ O O O O - - , < 1 2 5 9 8 D H O.@.-.5.5.>.0.<.u.n.b.b.b.b.k.| ^ ",
"E W Q | l.b.b.b.b.b.n.V.u.u.u.u.u.>.-.$.#.G q q q 9 5 2 , > + + O O - - ; , 1 3 q q q F G #.O.*.>.<.u.u.u.u.V.v.b.b.b.b.b.k.| ^ ",
"Y W ^ | | b.b.b.b.b.k.c.t.v.c.v.t.X.-.@.$.#.H H F q 7 3 4 , + + O O @ * > 1 3 8 q J H P #.#.@.>.<.t.v.c.v.v.c.b.b.b.b.b.k.k.| ^ ",
"Y W ~ | | k.k.k.k.k.k.k.l.c.k.c.t.X...-.@.+.+.O.K J Z C C % % % @ + % % % 4 C A Z J O.+.+.@.-...o.t.c.k.k.k.k.k.k.k.k.c.k.d./ ^ ",
"Y R ^ / | | | | | | d.d.| d.| |  .} ..[ ' ' ' ' A A k j j & & # # # $ $ j j j k A A A [ @.' ....}  .| | | d.| d.d.d.d.| | { / ^ ",
"Y W W Q ^ ^ ^ ^ ^ / ^ ^ / / / / / { } ] ] ` U A m l l y y a h h b = b h h y y l l m m ` ` ] ] ] { / / / / / ^ ^ ^ ^ ^ ^ / ^ ~ Q ",
"Y E W W W Q Q Q Q Q W ~ Q ~ W Q ~ Q Q Q ! U n n x p s r w y i z z z x i t w w w u x n n R ! Q Q W Q Q Q ~ W Q Q W W ~ W Q Q W W ",
"Y E W W W T W W W E W E W T W T T W T R R I c c x t e X X e u u i x u u t r   X t i c n n R E T W W W E T W T W W W W E W T T W ",
"Y E E E E E R R E E E E Y R R R E E T T Y I c x i t X     X e s t t t t X     X t u c c n Y Y E T E R R R R R R E E E E E E E E ",
"E W T W W W E T W E W W W W W W W W W W Y I I c x t X o . o e e e e e X o . o e t i c c Y T W W W W E W W W W W E W W E W W W W ",
"/ / / / / / / | / / / / / / / / / / / / ) ) T Y M v g d d d d d f f d d d d f g v M I T ) ) / / / / / / / / / / / / / / / / / / ",
"M.m.M.m.m.m.m.m.m.m.m.m.m.m.m.m.m.M.M.M.m.l.y._ ( ~ V N N N N N N N N N N N V V ~ ( _ _ l.m.M.M.M.M.M.M.m.m.m.m.m.m.m.m.M.M.m.m.",
"W.W.W.W.W.W.W.W.W.W.W.W.W.W.W.W.W.W.W.W.T.T.R.R.R.B.B.x.z.z.z.z.z.z.z.z.z.z.x.x.B.R.R.R.T.T.W.W.W.W.W.W.W.W.W.W.W.W.`.W.W.W.W.W.",
"OXOXOXOXOXOXOXOXOXOXOXOXOXOXOXOXOXOXOXOXOX+X+X).`.`.`.`.Q.Q.Q.Q.Q.Q.Q.Q.Q.Q.Q.`.`.).).+XOXOXOXOXOXOXOXOXOXOXOXOXOXOXOXOXOXOXOX+X"
};
